name analog
datacolumns 19
datarows 77
range 0.3925 0.4305
endheader
time	ground_force_vx	ground_force_vy	ground_force_vz	ground_force_px	ground_force_py	ground_force_pz	l_ground_force_vx	l_ground_force_vy	l_ground_force_vz	l_ground_force_px	l_ground_force_py	l_ground_force_pz	ground_torque_x	ground_torque_y	ground_torque_z	l_ground_torque_x	l_ground_torque_y	l_ground_torque_z
0.3925	-0.0	-0.0	-0.0	1.3381576538085938	1.5809847116470337	-755.1741943359375	-0.0	-0.0	-0.0	-0.0	-0.0	-0.0	-0.0	-0.0	-0.0	-0.0	-0.0	-0.0
0.393	-0.0	-0.0	-0.0	2.0339250564575195	2.805370092391968	-755.0809936523438	-0.0	-0.0	-0.0	-0.0	-0.0	-0.0	-0.0	-0.0	-0.0	-0.0	-0.0	-0.0
0.3935	-0.0	-0.0	-0.0	1.9015164375305176	4.386199474334717	-753.2398681640625	-0.0	-0.0	-0.0	-0.0	-0.0	-0.0	-0.0	-0.0	-0.0	-0.0	-0.0	-0.0
0.394	-0.0	-0.0	-0.0	1.2771751880645752	4.794311046600342	-752.1990356445312	-0.0	-0.0	-0.0	-0.0	-0.0	-0.0	-0.0	-0.0	-0.0	-0.0	-0.0	-0.0
0.3945	-0.0	-0.0	-0.0	0.5166321992874146	5.319427490234375	-751.56689453125	-0.0	-0.0	-0.0	-0.0	-0.0	-0.0	-0.0	-0.0	-0.0	-0.0	-0.0	-0.0
0.395	-0.0	-0.0	-0.0	0.1228780150413513	4.343845367431641	-751.4736328125	-0.0	-0.0	-0.0	-0.0	-0.0	-0.0	-0.0	-0.0	-0.0	-0.0	-0.0	-0.0
0.3955	-0.0	-0.0	-0.0	0.1312309503555297	3.512903451919556	-749.8419189453125	-0.0	-0.0	-0.0	-0.0	-0.0	-0.0	-0.0	-0.0	-0.0	-0.0	-0.0	-0.0
0.396	-0.0	-0.0	-0.0	-0.2309939265251159	2.4956512451171875	-752.3247680664062	-0.0	-0.0	-0.0	-0.0	-0.0	-0.0	-0.0	-0.0	-0.0	-0.0	-0.0	-0.0
0.3965	-0.0	-0.0	-0.0	0.5643996000289917	1.229639768600464	-749.3541259765625	-0.0	-0.0	-0.0	-0.0	-0.0	-0.0	-0.0	-0.0	-0.0	-0.0	-0.0	-0.0
0.397	-0.0	-0.0	-0.0	1.826004147529602	-0.2505387663841247	-749.35400390625	-0.0	-0.0	-0.0	-0.0	-0.0	-0.0	-0.0	-0.0	-0.0	-0.0	-0.0	-0.0
0.3975	-0.0	-0.0	-0.0	3.2058496475219727	-1.4800562858581543	-749.755615234375	-0.0	-0.0	-0.0	-0.0	-0.0	-0.0	-0.0	-0.0	-0.0	-0.0	-0.0	-0.0
0.398	-0.0	-0.0	-0.0	4.4605255126953125	-2.400642156600952	-750.6014404296875	-0.0	-0.0	-0.0	-0.0	-0.0	-0.0	-0.0	-0.0	-0.0	-0.0	-0.0	-0.0
0.3985	-0.0	-0.0	-0.0	6.006610870361328	-3.755199909210205	-747.8479614257812	-0.0	-0.0	-0.0	-0.0	-0.0	-0.0	-0.0	-0.0	-0.0	-0.0	-0.0	-0.0
0.399	-0.0	-0.0	-0.0	7.09529972076416	-5.270262241363525	-747.3773193359375	-0.0	-0.0	-0.0	-0.0	-0.0	-0.0	-0.0	-0.0	-0.0	-0.0	-0.0	-0.0
0.3995	-0.0	-0.0	-0.0	8.046536445617676	-6.482667446136475	-743.82177734375	-0.0	-0.0	-0.0	-0.0	-0.0	-0.0	-0.0	-0.0	-0.0	-0.0	-0.0	-0.0
0.4	-0.0	-0.0	-0.0	8.296577453613281	-5.662996768951416	-744.7872924804688	-0.0	-0.0	-0.0	-0.0	-0.0	-0.0	-0.0	-0.0	-0.0	-0.0	-0.0	-0.0
0.4005	-0.0	-0.0	-0.0	8.279183387756348	-5.241315364837647	-743.1336059570312	-0.0	-0.0	-0.0	-0.0	-0.0	-0.0	-0.0	-0.0	-0.0	-0.0	-0.0	-0.0
0.401	-0.0	-0.0	-0.0	7.987690448760986	-4.648168563842773	-738.7156372070312	-0.0	-0.0	-0.0	-0.0	-0.0	-0.0	-0.0	-0.0	-0.0	-0.0	-0.0	-0.0
0.4015	-0.0	-0.0	-0.0	7.411327838897705	-4.75820255279541	-737.7928466796875	-0.0	-0.0	-0.0	-0.0	-0.0	-0.0	-0.0	-0.0	-0.0	-0.0	-0.0	-0.0
0.402	-0.0	-0.0	-0.0	6.893252372741699	-3.6853225231170654	-738.9877319335938	-0.0	-0.0	-0.0	-0.0	-0.0	-0.0	-0.0	-0.0	-0.0	-0.0	-0.0	-0.0
0.4025	-0.0	-0.0	-0.0	6.001185894012451	-3.637396335601807	-735.864501953125	-0.0	-0.0	-0.0	-0.0	-0.0	-0.0	-0.0	-0.0	-0.0	-0.0	-0.0	-0.0
0.403	-0.0	-0.0	-0.0	4.289376258850098	-3.468820571899414	-734.3277587890625	-0.0	-0.0	-0.0	-0.0	-0.0	-0.0	-0.0	-0.0	-0.0	-0.0	-0.0	-0.0
0.4035	-0.0	-0.0	-0.0	3.925262451171875	-3.4184694290161133	-733.62109375	-0.0	-0.0	-0.0	-0.0	-0.0	-0.0	-0.0	-0.0	-0.0	-0.0	-0.0	-0.0
0.404	-0.0	-0.0	-0.0	2.464590072631836	-3.403592348098755	-734.68017578125	-0.0	-0.0	-0.0	-0.0	-0.0	-0.0	-0.0	-0.0	-0.0	-0.0	-0.0	-0.0
0.4045	-0.0	-0.0	-0.0	1.8172812461853027	-3.4837682247161865	-733.8469848632812	-0.0	-0.0	-0.0	-0.0	-0.0	-0.0	-0.0	-0.0	-0.0	-0.0	-0.0	-0.0
0.405	-0.0	-0.0	-0.0	0.015689730644226	-3.030433654785156	-732.3341064453125	-0.0	-0.0	-0.0	-0.0	-0.0	-0.0	-0.0	-0.0	-0.0	-0.0	-0.0	-0.0
0.4055	-0.0	-0.0	-0.0	-1.2410130500793457	-2.36591911315918	-733.7470092773438	-0.0	-0.0	-0.0	-0.0	-0.0	-0.0	-0.0	-0.0	-0.0	-0.0	-0.0	-0.0
0.406	-0.0	-0.0	-0.0	-2.165377140045166	-0.7940913438796997	-733.97216796875	-0.0	-0.0	-0.0	-0.0	-0.0	-0.0	-0.0	-0.0	-0.0	-0.0	-0.0	-0.0
0.40650000000000003	-0.0	-0.0	-0.0	-3.2681801319122314	0.3239421546459198	-736.3148803710938	-0.0	-0.0	-0.0	-0.0	-0.0	-0.0	-0.0	-0.0	-0.0	-0.0	-0.0	-0.0
0.40700000000000003	-0.0	-0.0	-0.0	-4.614556312561035	0.3565216064453125	-738.24267578125	-0.0	-0.0	-0.0	-0.0	-0.0	-0.0	-0.0	-0.0	-0.0	-0.0	-0.0	-0.0
0.40750000000000003	-0.0	-0.0	-0.0	-5.700966358184815	-0.2429839968681335	-740.5216064453125	-0.0	-0.0	-0.0	-0.0	-0.0	-0.0	-0.0	-0.0	-0.0	-0.0	-0.0	-0.0
0.40800000000000003	-0.0	-0.0	-0.0	-7.112372875213623	-0.924403727054596	-742.703125	-0.0	-0.0	-0.0	-0.0	-0.0	-0.0	-0.0	-0.0	-0.0	-0.0	-0.0	-0.0
0.40850000000000003	-0.0	-0.0	-0.0	-8.109389305114746	-2.074471473693848	-743.4091186523438	-0.0	-0.0	-0.0	-0.0	-0.0	-0.0	-0.0	-0.0	-0.0	-0.0	-0.0	-0.0
0.40900000000000003	-0.0	-0.0	-0.0	-7.192595958709717	-1.6444553136825562	-745.333251953125	-0.0	-0.0	-0.0	-0.0	-0.0	-0.0	-0.0	-0.0	-0.0	-0.0	-0.0	-0.0
0.40950000000000003	-0.0	-0.0	-0.0	-6.447728633880615	-1.9363188743591309	-744.2474365234375	-0.0	-0.0	-0.0	-0.0	-0.0	-0.0	-0.0	-0.0	-0.0	-0.0	-0.0	-0.0
0.41000000000000003	-0.0	-0.0	-0.0	-4.811136245727539	-1.6934776306152344	-746.3302612304688	-0.0	-0.0	-0.0	-0.0	-0.0	-0.0	-0.0	-0.0	-0.0	-0.0	-0.0	-0.0
0.41050000000000003	-0.0	-0.0	-0.0	-4.073086738586426	-1.376855969429016	-746.9385986328125	-0.0	-0.0	-0.0	-0.0	-0.0	-0.0	-0.0	-0.0	-0.0	-0.0	-0.0	-0.0
0.41100000000000003	-0.0	-0.0	-0.0	-3.885404348373413	-1.5057311058044434	-747.0582275390625	-0.0	-0.0	-0.0	-0.0	-0.0	-0.0	-0.0	-0.0	-0.0	-0.0	-0.0	-0.0
0.41150000000000003	-0.0	-0.0	-0.0	-3.072955846786499	-0.7870945930480957	-744.188232421875	-0.0	-0.0	-0.0	-0.0	-0.0	-0.0	-0.0	-0.0	-0.0	-0.0	-0.0	-0.0
0.41200000000000003	-0.0	-0.0	-0.0	-2.3194732666015625	-0.7872006893157959	-739.7546997070312	-0.0	-0.0	-0.0	-0.0	-0.0	-0.0	-0.0	-0.0	-0.0	-0.0	-0.0	-0.0
0.41250000000000003	-0.0	-0.0	-0.0	-1.5314486026763916	-0.4456520080566406	-739.3037109375	-0.0	-0.0	-0.0	-0.0	-0.0	-0.0	-0.0	-0.0	-0.0	-0.0	-0.0	-0.0
0.41300000000000003	-0.0	-0.0	-0.0	-0.95649653673172	-0.4309118986129761	-737.0865478515625	-0.0	-0.0	-0.0	-0.0	-0.0	-0.0	-0.0	-0.0	-0.0	-0.0	-0.0	-0.0
0.41350000000000003	-0.0	-0.0	-0.0	-0.4110354781150818	0.3960056006908417	-736.3399658203125	-0.0	-0.0	-0.0	-0.0	-0.0	-0.0	-0.0	-0.0	-0.0	-0.0	-0.0	-0.0
0.41400000000000003	-0.0	-0.0	-0.0	-0.3174002766609192	0.6135951280593872	-734.811279296875	-0.0	-0.0	-0.0	-0.0	-0.0	-0.0	-0.0	-0.0	-0.0	-0.0	-0.0	-0.0
0.41450000000000004	-0.0	-0.0	-0.0	-1.203059196472168	0.2031616270542144	-734.8946533203125	-0.0	-0.0	-0.0	-0.0	-0.0	-0.0	-0.0	-0.0	-0.0	-0.0	-0.0	-0.0
0.41500000000000004	-0.0	-0.0	-0.0	-1.8484753370285036	0.3670831620693207	-733.5965576171875	-0.0	-0.0	-0.0	-0.0	-0.0	-0.0	-0.0	-0.0	-0.0	-0.0	-0.0	-0.0
0.41550000000000004	-0.0	-0.0	-0.0	-2.5478627681732178	0.2851643562316894	-733.8939208984375	-0.0	-0.0	-0.0	-0.0	-0.0	-0.0	-0.0	-0.0	-0.0	-0.0	-0.0	-0.0
0.41600000000000004	-0.0	-0.0	-0.0	-3.1506505012512207	-0.2173899710178375	-732.2410888671875	-0.0	-0.0	-0.0	-0.0	-0.0	-0.0	-0.0	-0.0	-0.0	-0.0	-0.0	-0.0
0.4165	-0.0	-0.0	-0.0	-2.737401247024536	-0.7630970478057861	-731.720947265625	-0.0	-0.0	-0.0	-0.0	-0.0	-0.0	-0.0	-0.0	-0.0	-0.0	-0.0	-0.0
0.417	-0.0	-0.0	-0.0	-2.9439468383789062	-0.8523050546646118	-734.11767578125	-0.0	-0.0	-0.0	-0.0	-0.0	-0.0	-0.0	-0.0	-0.0	-0.0	-0.0	-0.0
0.4175	-0.0	-0.0	-0.0	-3.2367055416107178	-0.7519645690917969	-734.813232421875	-0.0	-0.0	-0.0	-0.0	-0.0	-0.0	-0.0	-0.0	-0.0	-0.0	-0.0	-0.0
0.418	-0.0	-0.0	-0.0	-4.856271266937256	-0.2536535263061523	-735.3206787109375	-0.0	-0.0	-0.0	-0.0	-0.0	-0.0	-0.0	-0.0	-0.0	-0.0	-0.0	-0.0
0.4185	-0.0	-0.0	-0.0	-6.169158935546875	-0.5735733509063721	-736.1806640625	-0.0	-0.0	-0.0	-0.0	-0.0	-0.0	-0.0	-0.0	-0.0	-0.0	-0.0	-0.0
0.419	-0.0	-0.0	-0.0	-7.315261840820312	-0.9957403540611268	-736.9402465820312	-0.0	-0.0	-0.0	-0.0	-0.0	-0.0	-0.0	-0.0	-0.0	-0.0	-0.0	-0.0
0.4195	-0.0	-0.0	-0.0	-7.875785827636719	-1.5656936168670654	-738.3524169921875	-0.0	-0.0	-0.0	-0.0	-0.0	-0.0	-0.0	-0.0	-0.0	-0.0	-0.0	-0.0
0.42	-0.0	-0.0	-0.0	-8.602827072143555	-2.202986478805542	-738.6521606445312	-0.0	-0.0	-0.0	-0.0	-0.0	-0.0	-0.0	-0.0	-0.0	-0.0	-0.0	-0.0
0.4205	-0.0	-0.0	-0.0	-9.77676486968994	-2.8906784057617188	-741.8304443359375	-0.0	-0.0	-0.0	-0.0	-0.0	-0.0	-0.0	-0.0	-0.0	-0.0	-0.0	-0.0
0.421	-0.0	-0.0	-0.0	-10.361507415771484	-3.9470889568328857	-744.8596801757812	-0.0	-0.0	-0.0	-0.0	-0.0	-0.0	-0.0	-0.0	-0.0	-0.0	-0.0	-0.0
0.4215	-0.0	-0.0	-0.0	-10.794471740722656	-4.443510055541992	-747.127685546875	-0.0	-0.0	-0.0	-0.0	-0.0	-0.0	-0.0	-0.0	-0.0	-0.0	-0.0	-0.0
0.422	-0.0	-0.0	-0.0	-10.934927940368652	-5.539353370666504	-750.4066162109375	-0.0	-0.0	-0.0	-0.0	-0.0	-0.0	-0.0	-0.0	-0.0	-0.0	-0.0	-0.0
0.4225	-0.0	-0.0	-0.0	-10.284786224365234	-6.162775039672852	-753.4843139648438	-0.0	-0.0	-0.0	-0.0	-0.0	-0.0	-0.0	-0.0	-0.0	-0.0	-0.0	-0.0
0.423	-0.0	-0.0	-0.0	-9.672945022583008	-6.659302711486816	-757.2177734375	-0.0	-0.0	-0.0	-0.0	-0.0	-0.0	-0.0	-0.0	-0.0	-0.0	-0.0	-0.0
0.4235	-0.0	-0.0	-0.0	-8.679311752319336	-7.168529987335205	-760.3963623046875	-0.0	-0.0	-0.0	-0.0	-0.0	-0.0	-0.0	-0.0	-0.0	-0.0	-0.0	-0.0
0.424	-0.0	-0.0	-0.0	-9.201159477233888	-7.397199153900146	-761.2040405273438	-0.0	-0.0	-0.0	-0.0	-0.0	-0.0	-0.0	-0.0	-0.0	-0.0	-0.0	-0.0
0.4245	-0.0	-0.0	-0.0	-8.564208984375	-6.837459564208984	-762.0118408203125	-0.0	-0.0	-0.0	-0.0	-0.0	-0.0	-0.0	-0.0	-0.0	-0.0	-0.0	-0.0
0.425	-0.0	-0.0	-0.0	-9.010261535644531	-6.826231002807617	-762.820068359375	-0.0	-0.0	-0.0	-0.0	-0.0	-0.0	-0.0	-0.0	-0.0	-0.0	-0.0	-0.0
0.4255	-0.0	-0.0	-0.0	-8.768312454223633	-6.455201625823975	-762.9703369140625	-0.0	-0.0	-0.0	-0.0	-0.0	-0.0	-0.0	-0.0	-0.0	-0.0	-0.0	-0.0
0.426	-0.0	-0.0	-0.0	-8.41149616241455	-6.17568302154541	-762.5155029296875	-0.0	-0.0	-0.0	-0.0	-0.0	-0.0	-0.0	-0.0	-0.0	-0.0	-0.0	-0.0
0.4265	-0.0	-0.0	-0.0	-8.399565696716309	-5.195287227630615	-762.1148681640625	-0.0	-0.0	-0.0	-0.0	-0.0	-0.0	-0.0	-0.0	-0.0	-0.0	-0.0	-0.0
0.427	-0.0	-0.0	-0.0	-8.157876014709473	-3.923816680908203	-759.8942260742188	-0.0	-0.0	-0.0	-0.0	-0.0	-0.0	-0.0	-0.0	-0.0	-0.0	-0.0	-0.0
0.4275	-0.0	-0.0	-0.0	-8.193313598632812	-2.701993227005005	-758.2307739257812	-0.0	-0.0	-0.0	-0.0	-0.0	-0.0	-0.0	-0.0	-0.0	-0.0	-0.0	-0.0
0.428	-0.0	-0.0	-0.0	-7.63459587097168	-2.5731351375579834	-756.9208374023438	-0.0	-0.0	-0.0	-0.0	-0.0	-0.0	-0.0	-0.0	-0.0	-0.0	-0.0	-0.0
0.4285	-0.0	-0.0	-0.0	-7.0619797706604	-2.40652084350586	-756.0100708007812	-0.0	-0.0	-0.0	-0.0	-0.0	-0.0	-0.0	-0.0	-0.0	-0.0	-0.0	-0.0
0.429	-0.0	-0.0	-0.0	-6.207382678985596	-2.6251790523529053	-755.24658203125	-0.0	-0.0	-0.0	-0.0	-0.0	-0.0	-0.0	-0.0	-0.0	-0.0	-0.0	-0.0
0.4295	-0.0	-0.0	-0.0	-5.6575703620910645	-2.075927257537842	-754.7583618164062	-0.0	-0.0	-0.0	-0.0	-0.0	-0.0	-0.0	-0.0	-0.0	-0.0	-0.0	-0.0
0.43	-0.0	-0.0	-0.0	-4.854598045349121	-2.1763265132904053	-753.8917846679688	-0.0	-0.0	-0.0	-0.0	-0.0	-0.0	-0.0	-0.0	-0.0	-0.0	-0.0	-0.0
0.4305	-0.0	-0.0	-0.0	-4.371315002441406	-2.3173904418945312	-753.229736328125	-0.0	-0.0	-0.0	-0.0	-0.0	-0.0	-0.0	-0.0	-0.0	-0.0	-0.0	-0.0
